{"title":"War.Horse.2011.DvDScr.XviD.Ac3.Feel-Free","uid":6942356,"size":1587375244,"categoryP":"video","categoryS":"movies","magnet":"?xt=urn:btih:8498a91852124960d37d4280f6d4a77470e33a15&amp;dn=War.Horse.2011.DvDScr.XviD.Ac3.Feel-Free&amp;tr=udp%3A%2F%2Ftracker.openbittorrent.com%3A80&amp;tr=udp%3A%2F%2Fopen.demonii.com%3A1337&amp;tr=udp%3A%2F%2Ftracker.coppersurfer.tk%3A6969&amp;tr=udp%3A%2F%2Fexodus.desync.com%3A6969","seeders":1,"leechers":0,"uploader":"rcbcsk","files":8,"time":1326093641,"description":"Genre:Drama | War\nLanguage:English\nIMDb:http://www.imdb.com/title/tt1568911/\nSource:DVDSCR.CM8 Thanks!\n\nFormat : AVI\nFormat/Info : Audio Video Interleave\nFile size : 1.48 GiB\nDuration : 2h 26mn\nOverall bit rate : 1 441 Kbps\n\nVideo\nID : 0\nFormat : MPEG-4 Visual\nFormat profile : Advanced Simple@L5\nFormat settings, BVOP : Yes\nFormat settings, QPel : No\nFormat settings, GMC : No warppoints\nFormat settings, Matrix : Default (H.263)\nCodec ID : XVID\nCodec ID/Hint : XviD\nDuration : 2h 26mn\nBit rate : 984 Kbps\nWidth : 640 pixels\nHeight : 272 pixels\nDisplay aspect ratio : 2.35:1\nFrame rate : 23.976 fps\nColor space : YUV\nChroma subsampling : 4:2:0\nBit depth : 8 bits\nScan type : Progressive\nBits/(Pixel*Frame) : 0.236\nStream size : 1.01 GiB (68%)\nWriting library : XviD 1.2.1 (UTC 2008-12-04)\n\nAudio\nID : 1\nFormat : AC-3\nFormat/Info : Audio Coding 3\nMode extension : CM (complete main)\nCodec ID : 2000\nDuration : 2h 26mn\nBit rate mode : Constant\nBit rate : 448 Kbps\nChannel(s) : 6 channels\nChannel positions : Front: L C R, Side: L R, LFE\nSampling rate : 48.0 KHz\nBit depth : 16 bits\nStream size : 470 MiB (31%)\nAlignment : Aligned on interleaves\nInterleave, duration : 42 ms (1.00 video frame)\nInterleave, preload duration : 512 ms\n\n\nPlot:\nYoung Albert enlists to service in WWI after his beloved horse, Joey, is sold to the cavalry. Albert's hopeful journey takes him out of England and across Europe as the war rages on.\n","torrent":{"xt":"urn:btih:8498a91852124960d37d4280f6d4a77470e33a15","amp;dn":"War.Horse.2011.DvDScr.XviD.Ac3.Feel-Free","amp;tr":["udp%3A%2F%2Ftracker.openbittorrent.com%3A80","udp%3A%2F%2Fopen.demonii.com%3A1337","udp%3A%2F%2Ftracker.coppersurfer.tk%3A6969","udp%3A%2F%2Fexodus.desync.com%3A6969"],"infoHash":"8498a91852124960d37d4280f6d4a77470e33a15","infoHashBuffer":{"type":"Buffer","data":[132,152,169,24,82,18,73,96,211,125,66,128,246,212,167,116,112,227,58,21]},"announce":[],"urlList":[]}}